<svg preserveAspectRatio="none" overflow="visible" style="display: block;" width="117.926" height="28" viewBox="0 0 117.926 28" fill="none" xmlns="http://www.w3.org/2000/svg">
<g id="Logo">
<g id="Mark">
<rect width="28" height="28" rx="8.75" fill="#A6C36F"/>
<path id="Glyph s" d="M14.0796 20.3245C13.2758 20.3245 12.5402 20.2487 11.8729 20.097C11.2207 19.9605 10.652 19.7482 10.1666 19.46C9.68129 19.1718 9.28696 18.823 8.98362 18.4135C8.68029 17.9888 8.48312 17.5111 8.39212 16.9803L11.1904 15.911C11.2814 16.2143 11.4558 16.5101 11.7136 16.7983C11.9715 17.0713 12.3127 17.2912 12.7374 17.458C13.1772 17.6097 13.7005 17.6855 14.3071 17.6855C14.8986 17.6855 15.3612 17.6021 15.6949 17.4353C16.0437 17.2684 16.2181 17.0106 16.2181 16.6618C16.2181 16.4343 16.1271 16.2523 15.9451 16.1158C15.7631 15.9641 15.4825 15.8352 15.1034 15.729C14.7394 15.6077 14.2768 15.4863 13.7156 15.365C13.109 15.2285 12.5099 15.0844 11.9184 14.9328C11.3269 14.7659 10.7733 14.546 10.2576 14.273C9.75712 13.9848 9.35521 13.6133 9.05187 13.1583C8.74854 12.7032 8.59687 12.1345 8.59687 11.452C8.59687 10.6937 8.79404 10.0339 9.18837 9.47275C9.59787 8.91158 10.197 8.47175 10.9856 8.15325C11.7743 7.83475 12.7222 7.6755 13.8294 7.6755C14.8152 7.6755 15.6873 7.812 16.4456 8.085C17.2191 8.34283 17.8561 8.722 18.3566 9.2225C18.8571 9.723 19.1832 10.3373 19.3349 11.0653L16.3774 11.998C16.3167 11.6492 16.1726 11.3534 15.9451 11.1107C15.7176 10.8529 15.4219 10.6558 15.0579 10.5193C14.709 10.3828 14.2995 10.3145 13.8294 10.3145C13.253 10.3145 12.8056 10.4055 12.4871 10.5875C12.1686 10.7695 12.0094 11.0122 12.0094 11.3155C12.0094 11.5582 12.1155 11.7629 12.3279 11.9298C12.5402 12.0814 12.8435 12.2103 13.2379 12.3165C13.6474 12.4227 14.1327 12.5364 14.6939 12.6578C15.2854 12.7791 15.8693 12.9232 16.4456 13.09C17.0371 13.2417 17.568 13.454 18.0381 13.727C18.5235 14 18.9026 14.3564 19.1756 14.7963C19.4638 15.2209 19.6079 15.7745 19.6079 16.457C19.6079 17.2608 19.3955 17.9509 18.9709 18.5273C18.5462 19.1036 17.9244 19.551 17.1054 19.8695C16.2864 20.1728 15.2778 20.3245 14.0796 20.3245Z" fill="#1A2410"/>
</g>
<g id="Wordmark shaker">
<path d="M41.5625 23.5944C40.635 23.5944 39.7863 23.5069 39.0163 23.3319C38.2638 23.1744 37.5988 22.9294 37.0213 22.5969C36.4613 22.2469 36.0063 21.8356 35.6563 21.3631C35.3063 20.8731 35.0875 20.3131 35 19.6831L38.255 18.5019C38.36 18.8519 38.5525 19.1931 38.8325 19.5256C39.13 19.8406 39.5238 20.0944 40.0138 20.2869C40.5037 20.4619 41.0988 20.5494 41.7988 20.5494C42.4813 20.5494 43.015 20.4531 43.4 20.2606C43.8025 20.0681 44.0038 19.7706 44.0038 19.3681C44.0038 19.1056 43.8988 18.8956 43.6888 18.7381C43.4788 18.5631 43.1638 18.4144 42.7438 18.2919C42.3238 18.1519 41.7813 18.0119 41.1163 17.8719C40.4163 17.7144 39.7163 17.5394 39.0163 17.3469C38.3338 17.1544 37.7038 16.9006 37.1263 16.5856C36.5488 16.2706 36.085 15.8506 35.735 15.3256C35.4025 14.8006 35.2362 14.1444 35.2362 13.3569C35.2362 12.4819 35.4637 11.7206 35.9188 11.0731C36.3913 10.4256 37.0825 9.91813 37.9925 9.55062C38.9025 9.18312 39.9875 8.99937 41.2475 8.99937C42.385 8.99937 43.4 9.15687 44.2925 9.47187C45.185 9.76937 45.9113 10.2156 46.4713 10.8106C47.0487 11.3881 47.425 12.1144 47.6 12.9894L44.1613 14.0131C44.0913 13.6106 43.925 13.2606 43.6625 12.9631C43.4175 12.6656 43.0938 12.4381 42.6912 12.2806C42.2887 12.1231 41.8075 12.0444 41.2475 12.0444C40.5825 12.0444 40.0663 12.1494 39.6988 12.3594C39.3313 12.5694 39.1475 12.8494 39.1475 13.1994C39.1475 13.4794 39.27 13.7156 39.515 13.9081C39.76 14.0831 40.11 14.2319 40.565 14.3544C41.0375 14.4769 41.5975 14.6081 42.245 14.7481C42.9275 14.8881 43.6013 15.0544 44.2663 15.2469C44.9313 15.4219 45.5438 15.6669 46.1038 15.9819C46.6638 16.2969 47.1013 16.7081 47.4163 17.2156C47.7488 17.7056 47.915 18.3531 47.915 19.1581C47.915 20.0681 47.67 20.8556 47.18 21.5206C46.69 22.1856 45.9725 22.7019 45.0275 23.0694C44.0825 23.4194 42.9275 23.5944 41.5625 23.5944Z" fill="#1A2410"/>
<path d="M49.3305 23.2269V4.43187H53.5567V8.57937C53.5567 8.92937 53.5392 9.32312 53.5042 9.76063C53.4867 10.1806 53.443 10.6181 53.373 11.0731C53.3204 11.5106 53.2592 11.9569 53.1892 12.4119C53.1192 12.8494 53.0492 13.2606 52.9792 13.6456H53.5042C53.7317 12.6831 54.0292 11.8606 54.3967 11.1781C54.7817 10.4781 55.2717 9.94437 55.8667 9.57687C56.4792 9.19187 57.2579 8.99937 58.2029 8.99937C59.813 8.99937 61.0117 9.56812 61.7992 10.7056C62.5867 11.8256 62.9804 13.5581 62.9804 15.9031V23.2269H58.7279V16.4806C58.7279 15.1506 58.5354 14.1619 58.1504 13.5144C57.7829 12.8494 57.2055 12.5169 56.4179 12.5169C55.788 12.5169 55.263 12.7181 54.843 13.1206C54.423 13.5231 54.0992 14.0831 53.8717 14.8006C53.6617 15.5006 53.5567 16.3144 53.5567 17.2419V23.2269H49.3305Z" fill="#1A2410"/>
<path d="M68.3342 23.5944C67.5817 23.5944 66.8992 23.4456 66.2867 23.1481C65.6917 22.8506 65.2192 22.4131 64.8692 21.8356C64.5192 21.2581 64.3442 20.5406 64.3442 19.6831C64.3442 18.8781 64.5017 18.2219 64.8167 17.7144C65.1317 17.1894 65.578 16.7781 66.1555 16.4806C66.733 16.1656 67.4155 15.9119 68.203 15.7194C69.008 15.5094 69.8917 15.3344 70.8542 15.1944C71.4492 15.0894 71.9305 14.9931 72.298 14.9056C72.6655 14.8181 72.928 14.6956 73.0855 14.5381C73.2605 14.3631 73.348 14.1181 73.348 13.8031C73.348 13.3481 73.1817 12.9719 72.8492 12.6744C72.5342 12.3594 72.0355 12.2019 71.353 12.2019C70.8805 12.2019 70.443 12.2894 70.0405 12.4644C69.6555 12.6394 69.323 12.8931 69.043 13.2256C68.7805 13.5581 68.5967 13.9869 68.4917 14.5119L64.738 13.5669C64.9305 12.7444 65.228 12.0444 65.6305 11.4669C66.033 10.8894 66.523 10.4169 67.1005 10.0494C67.6955 9.68188 68.3605 9.41938 69.0955 9.26188C69.848 9.08687 70.6355 8.99937 71.458 8.99937C72.858 8.99937 73.9955 9.23562 74.8705 9.70812C75.763 10.1631 76.4192 10.8631 76.8392 11.8081C77.2767 12.7531 77.4955 13.9431 77.4955 15.3781V17.5831C77.4955 18.2131 77.5042 18.8431 77.5217 19.4731C77.5567 20.0856 77.5917 20.7069 77.6267 21.3369C77.6617 21.9669 77.7055 22.5969 77.758 23.2269H74.0305C73.978 22.7719 73.9255 22.2556 73.873 21.6781C73.8205 21.1006 73.7767 20.5056 73.7417 19.8931H73.2955C73.0855 20.5756 72.753 21.2056 72.298 21.7831C71.843 22.3431 71.2742 22.7894 70.5917 23.1219C69.9267 23.4369 69.1742 23.5944 68.3342 23.5944ZM70.198 20.5756C70.513 20.5756 70.8367 20.5231 71.1692 20.4181C71.5017 20.2956 71.8167 20.1294 72.1142 19.9194C72.4117 19.7094 72.6742 19.4381 72.9017 19.1056C73.1467 18.7731 73.3217 18.3969 73.4267 17.9769L73.3742 16.1919L73.978 16.2969C73.6805 16.5069 73.3392 16.6731 72.9542 16.7956C72.5692 16.9181 72.1667 17.0144 71.7467 17.0844C71.3442 17.1544 70.9417 17.2331 70.5392 17.3206C70.1542 17.3906 69.8042 17.4956 69.4892 17.6356C69.1742 17.7581 68.9205 17.9244 68.728 18.1344C68.5355 18.3444 68.4392 18.6331 68.4392 19.0006C68.4392 19.4906 68.6055 19.8756 68.938 20.1556C69.2705 20.4356 69.6905 20.5756 70.198 20.5756Z" fill="#1A2410"/>
<path d="M79.5682 23.2269V4.40562H83.7157V14.7219C84.2407 14.3544 84.7219 13.9694 85.1594 13.5669C85.6144 13.1469 86.0169 12.7094 86.3669 12.2544C86.7344 11.7994 87.0582 11.3356 87.3382 10.8631C87.6182 10.3731 87.8632 9.87437 88.0732 9.36688H92.9032C92.6932 10.0494 92.3869 10.7319 91.9844 11.4144C91.5994 12.0794 91.1182 12.7006 90.5407 13.2781C89.9807 13.8381 89.3069 14.3281 88.5194 14.7481C87.7494 15.1506 86.8832 15.4394 85.9207 15.6144V16.0344C87.1457 15.8069 88.1519 15.7981 88.9394 16.0081C89.7269 16.2181 90.3569 16.5769 90.8294 17.0844C91.3019 17.5744 91.6607 18.1519 91.9057 18.8169C92.1682 19.4819 92.3782 20.1556 92.5357 20.8381L93.1132 23.2269H88.5194L88.2569 21.7306C88.0994 20.9256 87.9157 20.2344 87.7057 19.6569C87.4957 19.0619 87.1807 18.5981 86.7607 18.2656C86.3407 17.9156 85.7282 17.7406 84.9232 17.7406H83.7157V23.2269H79.5682Z" fill="#1A2410"/>
<path d="M100.571 23.5944C99.3809 23.5944 98.3309 23.4369 97.4209 23.1219C96.5284 22.7894 95.7671 22.3256 95.1371 21.7306C94.5246 21.1181 94.0609 20.3831 93.7459 19.5256C93.4309 18.6506 93.2734 17.6619 93.2734 16.5594C93.2734 15.4744 93.4221 14.4769 93.7196 13.5669C94.0346 12.6394 94.4896 11.8344 95.0846 11.1519C95.6796 10.4694 96.4146 9.94437 97.2896 9.57687C98.1646 9.19187 99.1621 8.99937 100.282 8.99937C101.42 8.99937 102.408 9.18312 103.248 9.55062C104.106 9.91813 104.806 10.4606 105.348 11.1781C105.891 11.8781 106.276 12.7269 106.503 13.7244C106.748 14.7219 106.818 15.8506 106.713 17.1106L96.0296 17.2156V14.9844L104.141 14.8794L102.828 15.9819C102.951 15.1244 102.907 14.4244 102.697 13.8819C102.487 13.3219 102.172 12.9106 101.752 12.6481C101.332 12.3856 100.86 12.2544 100.335 12.2544C99.7221 12.2544 99.1884 12.4206 98.7334 12.7531C98.2784 13.0856 97.9284 13.5669 97.6834 14.1969C97.4384 14.8094 97.3159 15.5619 97.3159 16.4544C97.3159 17.8894 97.6134 18.9306 98.2084 19.5781C98.8034 20.2256 99.5909 20.5494 100.571 20.5494C101.026 20.5494 101.402 20.4881 101.7 20.3656C102.015 20.2431 102.268 20.0856 102.461 19.8931C102.671 19.6831 102.82 19.4556 102.907 19.2106C103.012 18.9481 103.091 18.6856 103.143 18.4231L106.871 19.1056C106.766 19.7356 106.573 20.3219 106.293 20.8644C106.013 21.4069 105.62 21.8881 105.112 22.3081C104.622 22.7106 104.001 23.0256 103.248 23.2531C102.496 23.4806 101.603 23.5944 100.571 23.5944Z" fill="#1A2410"/>
<path d="M108.345 23.2269V9.36688H111.836L111.915 14.2231H112.387C112.51 12.9631 112.737 11.9569 113.07 11.2044C113.402 10.4519 113.866 9.90937 114.461 9.57687C115.056 9.22687 115.8 9.05187 116.692 9.05187C116.867 9.05187 117.051 9.06937 117.244 9.10437C117.454 9.12188 117.681 9.16562 117.926 9.23562L117.769 13.7769C117.471 13.6194 117.156 13.5144 116.824 13.4619C116.491 13.4094 116.194 13.3831 115.931 13.3831C115.266 13.3831 114.697 13.5231 114.225 13.8031C113.752 14.0656 113.376 14.4769 113.096 15.0369C112.834 15.5794 112.667 16.2706 112.597 17.1106V23.2269H108.345Z" fill="#1A2410"/>
</g>
</g>
</svg>
